<svg width="150" height="150" viewBox="0 0 150 150" fill="none" xmlns="http://www.w3.org/2000/svg">
<path d="M37.5 0C16.7893 0 0 16.7893 0 37.5C0 58.211 16.7893 75 37.5 75C16.7893 75 0 91.789 0 112.5C0 133.211 16.7893 150 37.5 150C58.211 150 75 133.211 75 112.5C75 133.211 91.789 150 112.5 150C133.211 150 150 133.211 150 112.5C150 91.789 133.211 75 112.5 75C133.211 75 150 58.211 150 37.5C150 16.7893 133.211 0 112.5 0C91.789 0 75 16.7893 75 37.5C75 16.7893 58.211 0 37.5 0Z" fill="#5C23A7"/>
</svg>
